<svg width="1024" height="753" viewBox="0 0 1024 753" fill="none" xmlns="http://www.w3.org/2000/svg">
<g opacity="0.2" filter="url(#filter0_f_175_1885)">
<ellipse cx="520.5" cy="31" rx="670.5" ry="350" fill="#338AF3"/>
</g>
<path d="M41.0349 267C42.5302 267 43.6622 267.63 44.4308 268.891C45.2134 270.138 45.6047 271.953 45.6047 274.336C45.6047 276.719 45.2134 278.541 44.4308 279.802C43.6622 281.063 42.5302 281.693 41.0349 281.693C39.5536 281.693 38.4216 281.063 37.639 279.802C36.8564 278.541 36.4651 276.719 36.4651 274.336C36.4651 271.967 36.8564 270.152 37.639 268.891C38.4216 267.63 39.5536 267 41.0349 267ZM37.9534 274.336C37.9534 276.026 38.1072 277.35 38.4146 278.306L43.0683 269.099C42.5791 268.448 41.9013 268.122 41.0349 268.122C40.0706 268.122 39.316 268.635 38.771 269.66C38.2259 270.672 37.9534 272.23 37.9534 274.336ZM41.0349 280.55C42.0131 280.55 42.7748 280.044 43.3198 279.033C43.8648 278.008 44.1373 276.442 44.1373 274.336C44.1373 272.549 43.9627 271.163 43.6133 270.18L38.9596 279.469C39.4627 280.19 40.1545 280.55 41.0349 280.55Z" fill="url(#paint0_linear_175_1885)" fill-opacity="0.6"/>
<path d="M42.2926 304.135H45.3741V305.236H37.3874V304.135H40.9511V292.455L37.5551 294.471L36.9682 293.536L41.1607 290.959H42.2926V304.135Z" fill="url(#paint1_linear_175_1885)" fill-opacity="0.6"/>
<path d="M41.0349 314.502C42.5302 314.502 43.6622 315.133 44.4308 316.393C45.2134 317.64 45.6047 319.455 45.6047 321.838C45.6047 324.221 45.2134 326.043 44.4308 327.304C43.6622 328.565 42.5302 329.195 41.0349 329.195C39.5536 329.195 38.4216 328.565 37.639 327.304C36.8564 326.043 36.4651 324.221 36.4651 321.838C36.4651 319.469 36.8564 317.654 37.639 316.393C38.4216 315.133 39.5536 314.502 41.0349 314.502ZM37.9534 321.838C37.9534 323.529 38.1072 324.852 38.4146 325.808L43.0683 316.601C42.5791 315.95 41.9013 315.624 41.0349 315.624C40.0706 315.624 39.316 316.137 38.771 317.162C38.2259 318.174 37.9534 319.732 37.9534 321.838ZM41.0349 328.052C42.0131 328.052 42.7748 327.546 43.3198 326.535C43.8648 325.51 44.1373 323.944 44.1373 321.838C44.1373 320.051 43.9627 318.665 43.6133 317.682L38.9596 326.971C39.4627 327.692 40.1545 328.052 41.0349 328.052Z" fill="url(#paint2_linear_175_1885)" fill-opacity="0.6"/>
<path d="M42.2926 351.637H45.3741V352.738H37.3874V351.637H40.9511V339.957L37.5551 341.973L36.9682 341.038L41.1607 338.461H42.2926V351.637Z" fill="url(#paint3_linear_175_1885)" fill-opacity="0.6"/>
<path d="M42.2926 375.388H45.3741V376.489H37.3874V375.388H40.9511V363.708L37.5551 365.724L36.9682 364.789L41.1607 362.212H42.2926V375.388Z" fill="url(#paint4_linear_175_1885)" fill-opacity="0.6"/>
<path d="M41.0349 385.755C42.5302 385.755 43.6622 386.386 44.4308 387.646C45.2134 388.893 45.6047 390.708 45.6047 393.091C45.6047 395.474 45.2134 397.296 44.4308 398.557C43.6622 399.818 42.5302 400.448 41.0349 400.448C39.5536 400.448 38.4216 399.818 37.639 398.557C36.8564 397.296 36.4651 395.474 36.4651 393.091C36.4651 390.722 36.8564 388.907 37.639 387.646C38.4216 386.386 39.5536 385.755 41.0349 385.755ZM37.9534 393.091C37.9534 394.782 38.1072 396.105 38.4146 397.061L43.0683 387.854C42.5791 387.203 41.9013 386.878 41.0349 386.878C40.0706 386.878 39.316 387.39 38.771 388.415C38.2259 389.427 37.9534 390.985 37.9534 393.091ZM41.0349 399.305C42.0131 399.305 42.7748 398.8 43.3198 397.788C43.8648 396.763 44.1373 395.197 44.1373 393.091C44.1373 391.304 43.9627 389.919 43.6133 388.935L38.9596 398.225C39.4627 398.945 40.1545 399.305 41.0349 399.305Z" fill="url(#paint5_linear_175_1885)" fill-opacity="0.6"/>
<path d="M42.2926 422.89H45.3741V423.992H37.3874V422.89H40.9511V411.21L37.5551 413.226L36.9682 412.291L41.1607 409.714H42.2926V422.89Z" fill="url(#paint6_linear_175_1885)" fill-opacity="0.6"/>
<path d="M41.0349 433.257C42.5302 433.257 43.6622 433.888 44.4308 435.149C45.2134 436.396 45.6047 438.211 45.6047 440.594C45.6047 442.977 45.2134 444.798 44.4308 446.059C43.6622 447.32 42.5302 447.95 41.0349 447.95C39.5536 447.95 38.4216 447.32 37.639 446.059C36.8564 444.798 36.4651 442.977 36.4651 440.594C36.4651 438.224 36.8564 436.409 37.639 435.149C38.4216 433.888 39.5536 433.257 41.0349 433.257ZM37.9534 440.594C37.9534 442.284 38.1072 443.607 38.4146 444.563L43.0683 435.356C42.5791 434.705 41.9013 434.38 41.0349 434.38C40.0706 434.38 39.316 434.892 38.771 435.918C38.2259 436.929 37.9534 438.488 37.9534 440.594ZM41.0349 446.807C42.0131 446.807 42.7748 446.302 43.3198 445.29C43.8648 444.265 44.1373 442.699 44.1373 440.594C44.1373 438.806 43.9627 437.421 43.6133 436.437L38.9596 445.727C39.4627 446.447 40.1545 446.807 41.0349 446.807Z" fill="url(#paint7_linear_175_1885)" fill-opacity="0.6"/>
<path d="M41.0349 457.008C42.5302 457.008 43.6622 457.639 44.4308 458.9C45.2134 460.147 45.6047 461.962 45.6047 464.345C45.6047 466.728 45.2134 468.549 44.4308 469.81C43.6622 471.071 42.5302 471.701 41.0349 471.701C39.5536 471.701 38.4216 471.071 37.639 469.81C36.8564 468.549 36.4651 466.728 36.4651 464.345C36.4651 461.975 36.8564 460.16 37.639 458.9C38.4216 457.639 39.5536 457.008 41.0349 457.008ZM37.9534 464.345C37.9534 466.035 38.1072 467.358 38.4146 468.314L43.0683 459.107C42.5791 458.456 41.9013 458.131 41.0349 458.131C40.0706 458.131 39.316 458.643 38.771 459.669C38.2259 460.68 37.9534 462.239 37.9534 464.345ZM41.0349 470.558C42.0131 470.558 42.7748 470.053 43.3198 469.041C43.8648 468.016 44.1373 466.451 44.1373 464.345C44.1373 462.557 43.9627 461.172 43.6133 460.188L38.9596 469.478C39.4627 470.198 40.1545 470.558 41.0349 470.558Z" fill="url(#paint8_linear_175_1885)" fill-opacity="0.6"/>
<path d="M42.2926 494.143H45.3741V495.245H37.3874V494.143H40.9511V482.464L37.5551 484.48L36.9682 483.544L41.1607 480.967H42.2926V494.143Z" fill="url(#paint9_linear_175_1885)" fill-opacity="0.6"/>
<path d="M41.0349 504.511C42.5302 504.511 43.6622 505.141 44.4308 506.402C45.2134 507.649 45.6047 509.464 45.6047 511.847C45.6047 514.23 45.2134 516.052 44.4308 517.312C43.6622 518.573 42.5302 519.204 41.0349 519.204C39.5536 519.204 38.4216 518.573 37.639 517.312C36.8564 516.052 36.4651 514.23 36.4651 511.847C36.4651 509.478 36.8564 507.663 37.639 506.402C38.4216 505.141 39.5536 504.511 41.0349 504.511ZM37.9534 511.847C37.9534 513.537 38.1072 514.86 38.4146 515.816L43.0683 506.61C42.5791 505.958 41.9013 505.633 41.0349 505.633C40.0706 505.633 39.316 506.145 38.771 507.171C38.2259 508.182 37.9534 509.741 37.9534 511.847ZM41.0349 518.061C42.0131 518.061 42.7748 517.555 43.3198 516.543C43.8648 515.518 44.1373 513.953 44.1373 511.847C44.1373 510.059 43.9627 508.674 43.6133 507.69L38.9596 516.98C39.4627 517.7 40.1545 518.061 41.0349 518.061Z" fill="url(#paint10_linear_175_1885)" fill-opacity="0.6"/>
<path d="M42.2926 541.645H45.3741V542.747H37.3874V541.645H40.9511V529.966L37.5551 531.982L36.9682 531.046L41.1607 528.469H42.2926V541.645Z" fill="url(#paint11_linear_175_1885)" fill-opacity="0.6"/>
<path d="M42.2926 565.396H45.3741V566.498H37.3874V565.396H40.9511V553.717L37.5551 555.733L36.9682 554.798L41.1607 552.221H42.2926V565.396Z" fill="url(#paint12_linear_175_1885)" fill-opacity="0.6"/>
<path d="M79.9651 314.502C81.4604 314.502 82.5924 315.133 83.361 316.393C84.1436 317.64 84.5349 319.455 84.5349 321.838C84.5349 324.221 84.1436 326.043 83.361 327.304C82.5924 328.565 81.4604 329.195 79.9651 329.195C78.4838 329.195 77.3518 328.565 76.5692 327.304C75.7866 326.043 75.3953 324.221 75.3953 321.838C75.3953 319.469 75.7866 317.654 76.5692 316.393C77.3518 315.133 78.4838 314.502 79.9651 314.502ZM76.8836 321.838C76.8836 323.529 77.0374 324.852 77.3448 325.808L81.9985 316.601C81.5093 315.95 80.8315 315.624 79.9651 315.624C79.0008 315.624 78.2462 316.137 77.7012 317.162C77.1561 318.174 76.8836 319.732 76.8836 321.838ZM79.9651 328.052C80.9433 328.052 81.705 327.546 82.25 326.535C82.795 325.51 83.0675 323.944 83.0675 321.838C83.0675 320.051 82.8928 318.665 82.5435 317.682L77.8898 326.971C78.3929 327.692 79.0847 328.052 79.9651 328.052Z" fill="url(#paint13_linear_175_1885)" fill-opacity="0.6"/>
<path d="M81.2228 351.637H84.3043V352.738H76.3176V351.637H79.8812V339.957L76.4853 341.973L75.8984 341.038L80.0909 338.461H81.2228V351.637Z" fill="url(#paint14_linear_175_1885)" fill-opacity="0.6"/>
<path d="M79.9651 362.004C81.4604 362.004 82.5924 362.635 83.361 363.895C84.1436 365.142 84.5349 366.957 84.5349 369.34C84.5349 371.723 84.1436 373.545 83.361 374.806C82.5924 376.067 81.4604 376.697 79.9651 376.697C78.4838 376.697 77.3518 376.067 76.5692 374.806C75.7866 373.545 75.3953 371.723 75.3953 369.34C75.3953 366.971 75.7866 365.156 76.5692 363.895C77.3518 362.635 78.4838 362.004 79.9651 362.004ZM76.8836 369.34C76.8836 371.031 77.0374 372.354 77.3448 373.31L81.9985 364.103C81.5093 363.452 80.8315 363.126 79.9651 363.126C79.0008 363.126 78.2462 363.639 77.7012 364.664C77.1561 365.676 76.8836 367.234 76.8836 369.34ZM79.9651 375.554C80.9433 375.554 81.705 375.049 82.25 374.037C82.795 373.012 83.0675 371.446 83.0675 369.34C83.0675 367.553 82.8928 366.168 82.5435 365.184L77.8898 374.474C78.3929 375.194 79.0847 375.554 79.9651 375.554Z" fill="url(#paint15_linear_175_1885)" fill-opacity="0.6"/>
<path d="M79.9651 385.755C81.4604 385.755 82.5924 386.386 83.361 387.646C84.1436 388.893 84.5349 390.708 84.5349 393.091C84.5349 395.474 84.1436 397.296 83.361 398.557C82.5924 399.818 81.4604 400.448 79.9651 400.448C78.4838 400.448 77.3518 399.818 76.5692 398.557C75.7866 397.296 75.3953 395.474 75.3953 393.091C75.3953 390.722 75.7866 388.907 76.5692 387.646C77.3518 386.386 78.4838 385.755 79.9651 385.755ZM76.8836 393.091C76.8836 394.782 77.0374 396.105 77.3448 397.061L81.9985 387.854C81.5093 387.203 80.8315 386.878 79.9651 386.878C79.0008 386.878 78.2462 387.39 77.7012 388.415C77.1561 389.427 76.8836 390.985 76.8836 393.091ZM79.9651 399.305C80.9433 399.305 81.705 398.8 82.25 397.788C82.795 396.763 83.0675 395.197 83.0675 393.091C83.0675 391.304 82.8928 389.919 82.5435 388.935L77.8898 398.225C78.3929 398.945 79.0847 399.305 79.9651 399.305Z" fill="url(#paint16_linear_175_1885)" fill-opacity="0.6"/>
<path d="M81.2228 422.89H84.3043V423.992H76.3176V422.89H79.8812V411.21L76.4853 413.226L75.8984 412.291L80.0909 409.714H81.2228V422.89Z" fill="url(#paint17_linear_175_1885)" fill-opacity="0.6"/>
<path d="M79.9651 433.257C81.4604 433.257 82.5924 433.888 83.361 435.149C84.1436 436.396 84.5349 438.211 84.5349 440.594C84.5349 442.977 84.1436 444.798 83.361 446.059C82.5924 447.32 81.4604 447.95 79.9651 447.95C78.4838 447.95 77.3518 447.32 76.5692 446.059C75.7866 444.798 75.3953 442.977 75.3953 440.594C75.3953 438.224 75.7866 436.409 76.5692 435.149C77.3518 433.888 78.4838 433.257 79.9651 433.257ZM76.8836 440.594C76.8836 442.284 77.0374 443.607 77.3448 444.563L81.9985 435.356C81.5093 434.705 80.8315 434.38 79.9651 434.38C79.0008 434.38 78.2462 434.892 77.7012 435.918C77.1561 436.929 76.8836 438.488 76.8836 440.594ZM79.9651 446.807C80.9433 446.807 81.705 446.302 82.25 445.29C82.795 444.265 83.0675 442.699 83.0675 440.594C83.0675 438.806 82.8928 437.421 82.5435 436.437L77.8898 445.727C78.3929 446.447 79.0847 446.807 79.9651 446.807Z" fill="url(#paint18_linear_175_1885)" fill-opacity="0.6"/>
<path d="M81.2228 470.392H84.3043V471.494H76.3176V470.392H79.8812V458.713L76.4853 460.728L75.8984 459.793L80.0909 457.216H81.2228V470.392Z" fill="url(#paint19_linear_175_1885)" fill-opacity="0.6"/>
<path d="M79.9651 480.76C81.4604 480.76 82.5924 481.39 83.361 482.651C84.1436 483.898 84.5349 485.713 84.5349 488.096C84.5349 490.479 84.1436 492.301 83.361 493.561C82.5924 494.822 81.4604 495.453 79.9651 495.453C78.4838 495.453 77.3518 494.822 76.5692 493.561C75.7866 492.301 75.3953 490.479 75.3953 488.096C75.3953 485.726 75.7866 483.911 76.5692 482.651C77.3518 481.39 78.4838 480.76 79.9651 480.76ZM76.8836 488.096C76.8836 489.786 77.0374 491.109 77.3448 492.065L81.9985 482.859C81.5093 482.207 80.8315 481.882 79.9651 481.882C79.0008 481.882 78.2462 482.394 77.7012 483.42C77.1561 484.431 76.8836 485.99 76.8836 488.096ZM79.9651 494.31C80.9433 494.31 81.705 493.804 82.25 492.792C82.795 491.767 83.0675 490.202 83.0675 488.096C83.0675 486.308 82.8928 484.923 82.5435 483.939L77.8898 493.229C78.3929 493.949 79.0847 494.31 79.9651 494.31Z" fill="url(#paint20_linear_175_1885)" fill-opacity="0.6"/>
<path d="M79.9651 504.511C81.4604 504.511 82.5924 505.141 83.361 506.402C84.1436 507.649 84.5349 509.464 84.5349 511.847C84.5349 514.23 84.1436 516.052 83.361 517.312C82.5924 518.573 81.4604 519.204 79.9651 519.204C78.4838 519.204 77.3518 518.573 76.5692 517.312C75.7866 516.052 75.3953 514.23 75.3953 511.847C75.3953 509.478 75.7866 507.663 76.5692 506.402C77.3518 505.141 78.4838 504.511 79.9651 504.511ZM76.8836 511.847C76.8836 513.537 77.0374 514.86 77.3448 515.816L81.9985 506.61C81.5093 505.958 80.8315 505.633 79.9651 505.633C79.0008 505.633 78.2462 506.145 77.7012 507.171C77.1561 508.182 76.8836 509.741 76.8836 511.847ZM79.9651 518.061C80.9433 518.061 81.705 517.555 82.25 516.543C82.795 515.518 83.0675 513.953 83.0675 511.847C83.0675 510.059 82.8928 508.674 82.5435 507.69L77.8898 516.98C78.3929 517.7 79.0847 518.061 79.9651 518.061Z" fill="url(#paint21_linear_175_1885)" fill-opacity="0.6"/>
<path d="M81.2228 541.645H84.3043V542.747H76.3176V541.645H79.8812V529.966L76.4853 531.982L75.8984 531.046L80.0909 528.469H81.2228V541.645Z" fill="url(#paint22_linear_175_1885)" fill-opacity="0.6"/>
<path d="M79.9651 552.013C81.4604 552.013 82.5924 552.643 83.361 553.904C84.1436 555.151 84.5349 556.966 84.5349 559.349C84.5349 561.732 84.1436 563.554 83.361 564.815C82.5924 566.075 81.4604 566.706 79.9651 566.706C78.4838 566.706 77.3518 566.075 76.5692 564.815C75.7866 563.554 75.3953 561.732 75.3953 559.349C75.3953 556.98 75.7866 555.165 76.5692 553.904C77.3518 552.643 78.4838 552.013 79.9651 552.013ZM76.8836 559.349C76.8836 561.039 77.0374 562.362 77.3448 563.318L81.9985 554.112C81.5093 553.461 80.8315 553.135 79.9651 553.135C79.0008 553.135 78.2462 553.648 77.7012 554.673C77.1561 555.684 76.8836 557.243 76.8836 559.349ZM79.9651 565.563C80.9433 565.563 81.705 565.057 82.25 564.046C82.795 563.02 83.0675 561.455 83.0675 559.349C83.0675 557.562 82.8928 556.176 82.5435 555.192L77.8898 564.482C78.3929 565.202 79.0847 565.563 79.9651 565.563Z" fill="url(#paint23_linear_175_1885)" fill-opacity="0.6"/>
<path d="M81.2228 589.147H84.3043V590.249H76.3176V589.147H79.8812V577.468L76.4853 579.484L75.8984 578.549L80.0909 575.972H81.2228V589.147Z" fill="url(#paint24_linear_175_1885)" fill-opacity="0.6"/>
<path d="M81.2228 612.899H84.3043V614H76.3176V612.899H79.8812V601.219L76.4853 603.235L75.8984 602.3L80.0909 599.723H81.2228V612.899Z" fill="url(#paint25_linear_175_1885)" fill-opacity="0.6"/>
<path d="M21.5698 338.253C23.0651 338.253 24.1971 338.884 24.9657 340.144C25.7483 341.391 26.1396 343.206 26.1396 345.589C26.1396 347.972 25.7483 349.794 24.9657 351.055C24.1971 352.316 23.0651 352.946 21.5698 352.946C20.0885 352.946 18.9565 352.316 18.1739 351.055C17.3913 349.794 17 347.972 17 345.589C17 343.22 17.3913 341.405 18.1739 340.144C18.9565 338.884 20.0885 338.253 21.5698 338.253ZM18.4883 345.589C18.4883 347.28 18.6421 348.603 18.9495 349.559L23.6032 340.352C23.114 339.701 22.4363 339.375 21.5698 339.375C20.6055 339.375 19.8509 339.888 19.3059 340.913C18.7608 341.925 18.4883 343.483 18.4883 345.589ZM21.5698 351.803C22.5481 351.803 23.3097 351.297 23.8547 350.286C24.3997 349.261 24.6722 347.695 24.6722 345.589C24.6722 343.802 24.4976 342.417 24.1482 341.433L19.4945 350.722C19.9976 351.443 20.6894 351.803 21.5698 351.803Z" fill="url(#paint26_linear_175_1885)" fill-opacity="0.6"/>
<path d="M21.5698 362.004C23.0651 362.004 24.1971 362.635 24.9657 363.895C25.7483 365.142 26.1396 366.957 26.1396 369.34C26.1396 371.723 25.7483 373.545 24.9657 374.806C24.1971 376.067 23.0651 376.697 21.5698 376.697C20.0885 376.697 18.9565 376.067 18.1739 374.806C17.3913 373.545 17 371.723 17 369.34C17 366.971 17.3913 365.156 18.1739 363.895C18.9565 362.635 20.0885 362.004 21.5698 362.004ZM18.4883 369.34C18.4883 371.031 18.6421 372.354 18.9495 373.31L23.6032 364.103C23.114 363.452 22.4363 363.126 21.5698 363.126C20.6055 363.126 19.8509 363.639 19.3059 364.664C18.7608 365.676 18.4883 367.234 18.4883 369.34ZM21.5698 375.554C22.5481 375.554 23.3097 375.049 23.8547 374.037C24.3997 373.012 24.6722 371.446 24.6722 369.34C24.6722 367.553 24.4976 366.168 24.1482 365.184L19.4945 374.474C19.9976 375.194 20.6894 375.554 21.5698 375.554Z" fill="url(#paint27_linear_175_1885)" fill-opacity="0.6"/>
<path d="M22.8276 399.139H25.909V400.24H17.9223V399.139H21.486V387.459L18.09 389.475L17.5031 388.54L21.6956 385.963H22.8276V399.139Z" fill="url(#paint28_linear_175_1885)" fill-opacity="0.6"/>
<path d="M21.5698 409.506C23.0651 409.506 24.1971 410.137 24.9657 411.398C25.7483 412.644 26.1396 414.459 26.1396 416.842C26.1396 419.225 25.7483 421.047 24.9657 422.308C24.1971 423.569 23.0651 424.199 21.5698 424.199C20.0885 424.199 18.9565 423.569 18.1739 422.308C17.3913 421.047 17 419.225 17 416.842C17 414.473 17.3913 412.658 18.1739 411.398C18.9565 410.137 20.0885 409.506 21.5698 409.506ZM18.4883 416.842C18.4883 418.533 18.6421 419.856 18.9495 420.812L23.6032 411.605C23.114 410.954 22.4363 410.629 21.5698 410.629C20.6055 410.629 19.8509 411.141 19.3059 412.166C18.7608 413.178 18.4883 414.737 18.4883 416.842ZM21.5698 423.056C22.5481 423.056 23.3097 422.551 23.8547 421.539C24.3997 420.514 24.6722 418.948 24.6722 416.842C24.6722 415.055 24.4976 413.67 24.1482 412.686L19.4945 421.976C19.9976 422.696 20.6894 423.056 21.5698 423.056Z" fill="url(#paint29_linear_175_1885)" fill-opacity="0.6"/>
<path d="M22.8276 446.641H25.909V447.743H17.9223V446.641H21.486V434.962L18.09 436.977L17.5031 436.042L21.6956 433.465H22.8276V446.641Z" fill="url(#paint30_linear_175_1885)" fill-opacity="0.6"/>
<path d="M22.8276 470.392H25.909V471.494H17.9223V470.392H21.486V458.713L18.09 460.728L17.5031 459.793L21.6956 457.216H22.8276V470.392Z" fill="url(#paint31_linear_175_1885)" fill-opacity="0.6"/>
<path d="M61.7577 304.135H64.8392V305.236H56.8525V304.135H60.4162V292.455L57.0202 294.471L56.4333 293.536L60.6258 290.959H61.7577V304.135Z" fill="url(#paint32_linear_175_1885)" fill-opacity="0.6"/>
<path d="M60.5 314.502C61.9953 314.502 63.1273 315.133 63.8959 316.393C64.6785 317.64 65.0698 319.455 65.0698 321.838C65.0698 324.221 64.6785 326.043 63.8959 327.304C63.1273 328.565 61.9953 329.195 60.5 329.195C59.0187 329.195 57.8867 328.565 57.1041 327.304C56.3215 326.043 55.9302 324.221 55.9302 321.838C55.9302 319.469 56.3215 317.654 57.1041 316.393C57.8867 315.133 59.0187 314.502 60.5 314.502ZM57.4185 321.838C57.4185 323.529 57.5723 324.852 57.8797 325.808L62.5334 316.601C62.0442 315.95 61.3664 315.624 60.5 315.624C59.5357 315.624 58.7811 316.137 58.2361 317.162C57.691 318.174 57.4185 319.732 57.4185 321.838ZM60.5 328.052C61.4782 328.052 62.2399 327.546 62.7849 326.535C63.3299 325.51 63.6024 323.944 63.6024 321.838C63.6024 320.051 63.4277 318.665 63.0784 317.682L58.4247 326.971C58.9278 327.692 59.6196 328.052 60.5 328.052Z" fill="url(#paint33_linear_175_1885)" fill-opacity="0.6"/>
<path d="M61.7577 351.637H64.8392V352.738H56.8525V351.637H60.4162V339.957L57.0202 341.973L56.4333 341.038L60.6258 338.461H61.7577V351.637Z" fill="url(#paint34_linear_175_1885)" fill-opacity="0.6"/>
<path d="M61.7577 375.388H64.8392V376.489H56.8525V375.388H60.4162V363.708L57.0202 365.724L56.4333 364.789L60.6258 362.212H61.7577V375.388Z" fill="url(#paint35_linear_175_1885)" fill-opacity="0.6"/>
<path d="M60.5 385.755C61.9953 385.755 63.1273 386.386 63.8959 387.646C64.6785 388.893 65.0698 390.708 65.0698 393.091C65.0698 395.474 64.6785 397.296 63.8959 398.557C63.1273 399.818 61.9953 400.448 60.5 400.448C59.0187 400.448 57.8867 399.818 57.1041 398.557C56.3215 397.296 55.9302 395.474 55.9302 393.091C55.9302 390.722 56.3215 388.907 57.1041 387.646C57.8867 386.386 59.0187 385.755 60.5 385.755ZM57.4185 393.091C57.4185 394.782 57.5723 396.105 57.8797 397.061L62.5334 387.854C62.0442 387.203 61.3664 386.878 60.5 386.878C59.5357 386.878 58.7811 387.39 58.2361 388.415C57.691 389.427 57.4185 390.985 57.4185 393.091ZM60.5 399.305C61.4782 399.305 62.2399 398.8 62.7849 397.788C63.3299 396.763 63.6024 395.197 63.6024 393.091C63.6024 391.304 63.4277 389.919 63.0784 388.935L58.4247 398.225C58.9278 398.945 59.6196 399.305 60.5 399.305Z" fill="url(#paint36_linear_175_1885)" fill-opacity="0.6"/>
<path d="M61.7577 422.89H64.8392V423.992H56.8525V422.89H60.4162V411.21L57.0202 413.226L56.4333 412.291L60.6258 409.714H61.7577V422.89Z" fill="url(#paint37_linear_175_1885)" fill-opacity="0.6"/>
<path d="M61.7577 446.641H64.8392V447.743H56.8525V446.641H60.4162V434.962L57.0202 436.977L56.4333 436.042L60.6258 433.465H61.7577V446.641Z" fill="url(#paint38_linear_175_1885)" fill-opacity="0.6"/>
<path d="M60.5 457.008C61.9953 457.008 63.1273 457.639 63.8959 458.9C64.6785 460.147 65.0698 461.962 65.0698 464.345C65.0698 466.728 64.6785 468.549 63.8959 469.81C63.1273 471.071 61.9953 471.701 60.5 471.701C59.0187 471.701 57.8867 471.071 57.1041 469.81C56.3215 468.549 55.9302 466.728 55.9302 464.345C55.9302 461.975 56.3215 460.16 57.1041 458.9C57.8867 457.639 59.0187 457.008 60.5 457.008ZM57.4185 464.345C57.4185 466.035 57.5723 467.358 57.8797 468.314L62.5334 459.107C62.0442 458.456 61.3664 458.131 60.5 458.131C59.5357 458.131 58.7811 458.643 58.2361 459.669C57.691 460.68 57.4185 462.239 57.4185 464.345ZM60.5 470.558C61.4782 470.558 62.2399 470.053 62.7849 469.041C63.3299 468.016 63.6024 466.451 63.6024 464.345C63.6024 462.557 63.4277 461.172 63.0784 460.188L58.4247 469.478C58.9278 470.198 59.6196 470.558 60.5 470.558Z" fill="url(#paint39_linear_175_1885)" fill-opacity="0.6"/>
<path d="M61.7577 494.143H64.8392V495.245H56.8525V494.143H60.4162V482.464L57.0202 484.48L56.4333 483.544L60.6258 480.967H61.7577V494.143Z" fill="url(#paint40_linear_175_1885)" fill-opacity="0.6"/>
<path d="M60.5 504.511C61.9953 504.511 63.1273 505.141 63.8959 506.402C64.6785 507.649 65.0698 509.464 65.0698 511.847C65.0698 514.23 64.6785 516.052 63.8959 517.312C63.1273 518.573 61.9953 519.204 60.5 519.204C59.0187 519.204 57.8867 518.573 57.1041 517.312C56.3215 516.052 55.9302 514.23 55.9302 511.847C55.9302 509.478 56.3215 507.663 57.1041 506.402C57.8867 505.141 59.0187 504.511 60.5 504.511ZM57.4185 511.847C57.4185 513.537 57.5723 514.86 57.8797 515.816L62.5334 506.61C62.0442 505.958 61.3664 505.633 60.5 505.633C59.5357 505.633 58.7811 506.145 58.2361 507.171C57.691 508.182 57.4185 509.741 57.4185 511.847ZM60.5 518.061C61.4782 518.061 62.2399 517.555 62.7849 516.543C63.3299 515.518 63.6024 513.953 63.6024 511.847C63.6024 510.059 63.4277 508.674 63.0784 507.69L58.4247 516.98C58.9278 517.7 59.6196 518.061 60.5 518.061Z" fill="url(#paint41_linear_175_1885)" fill-opacity="0.6"/>
<path d="M99.4302 290.751C100.926 290.751 102.057 291.381 102.826 292.642C103.609 293.889 104 295.704 104 298.087C104 300.47 103.609 302.292 102.826 303.553C102.057 304.814 100.926 305.444 99.4302 305.444C97.9489 305.444 96.8169 304.814 96.0343 303.553C95.2517 302.292 94.8604 300.47 94.8604 298.087C94.8604 295.718 95.2517 293.903 96.0343 292.642C96.8169 291.381 97.9489 290.751 99.4302 290.751ZM96.3487 298.087C96.3487 299.777 96.5024 301.101 96.8099 302.057L101.464 292.85C100.974 292.199 100.297 291.873 99.4302 291.873C98.4659 291.873 97.7113 292.386 97.1663 293.411C96.6212 294.423 96.3487 295.981 96.3487 298.087ZM99.4302 304.301C100.408 304.301 101.17 303.795 101.715 302.784C102.26 301.759 102.533 300.193 102.533 298.087C102.533 296.3 102.358 294.914 102.009 293.931L97.3549 303.22C97.858 303.941 98.5498 304.301 99.4302 304.301Z" fill="url(#paint42_linear_175_1885)" fill-opacity="0.6"/>
<path d="M100.688 327.886H103.769V328.987H95.7827V327.886H99.3463V316.206L95.9504 318.222L95.3635 317.287L99.556 314.71H100.688V327.886Z" fill="url(#paint43_linear_175_1885)" fill-opacity="0.6"/>
<path d="M100.688 351.637H103.769V352.738H95.7827V351.637H99.3463V339.957L95.9504 341.973L95.3635 341.038L99.556 338.461H100.688V351.637Z" fill="url(#paint44_linear_175_1885)" fill-opacity="0.6"/>
<path d="M99.4302 362.004C100.926 362.004 102.057 362.635 102.826 363.895C103.609 365.142 104 366.957 104 369.34C104 371.723 103.609 373.545 102.826 374.806C102.057 376.067 100.926 376.697 99.4302 376.697C97.9489 376.697 96.8169 376.067 96.0343 374.806C95.2517 373.545 94.8604 371.723 94.8604 369.34C94.8604 366.971 95.2517 365.156 96.0343 363.895C96.8169 362.635 97.9489 362.004 99.4302 362.004ZM96.3487 369.34C96.3487 371.031 96.5024 372.354 96.8099 373.31L101.464 364.103C100.974 363.452 100.297 363.126 99.4302 363.126C98.4659 363.126 97.7113 363.639 97.1663 364.664C96.6212 365.676 96.3487 367.234 96.3487 369.34ZM99.4302 375.554C100.408 375.554 101.17 375.049 101.715 374.037C102.26 373.012 102.533 371.446 102.533 369.34C102.533 367.553 102.358 366.168 102.009 365.184L97.3549 374.474C97.858 375.194 98.5498 375.554 99.4302 375.554Z" fill="url(#paint45_linear_175_1885)" fill-opacity="0.6"/>
<path d="M99.4302 385.755C100.926 385.755 102.057 386.386 102.826 387.646C103.609 388.893 104 390.708 104 393.091C104 395.474 103.609 397.296 102.826 398.557C102.057 399.818 100.926 400.448 99.4302 400.448C97.9489 400.448 96.8169 399.818 96.0343 398.557C95.2517 397.296 94.8604 395.474 94.8604 393.091C94.8604 390.722 95.2517 388.907 96.0343 387.646C96.8169 386.386 97.9489 385.755 99.4302 385.755ZM96.3487 393.091C96.3487 394.782 96.5024 396.105 96.8099 397.061L101.464 387.854C100.974 387.203 100.297 386.878 99.4302 386.878C98.4659 386.878 97.7113 387.39 97.1663 388.415C96.6212 389.427 96.3487 390.985 96.3487 393.091ZM99.4302 399.305C100.408 399.305 101.17 398.8 101.715 397.788C102.26 396.763 102.533 395.197 102.533 393.091C102.533 391.304 102.358 389.919 102.009 388.935L97.3549 398.225C97.858 398.945 98.5498 399.305 99.4302 399.305Z" fill="url(#paint46_linear_175_1885)" fill-opacity="0.6"/>
<g opacity="0.6">
<path d="M927.93 -33C929.356 -33 930.436 -32.395 931.17 -31.1851C931.916 -29.9885 932.29 -28.2468 932.29 -25.9599C932.29 -23.673 931.916 -21.9246 931.17 -20.7147C930.436 -19.5048 929.356 -18.8998 927.93 -18.8998C926.517 -18.8998 925.437 -19.5048 924.69 -20.7147C923.943 -21.9246 923.57 -23.673 923.57 -25.9599C923.57 -28.2335 923.943 -29.9752 924.69 -31.1851C925.437 -32.395 926.517 -33 927.93 -33ZM924.99 -25.9599C924.99 -24.3378 925.137 -23.068 925.43 -22.1506L929.87 -30.9857C929.403 -31.6106 928.756 -31.923 927.93 -31.923C927.01 -31.923 926.29 -31.4311 925.77 -30.4472C925.25 -29.4766 924.99 -27.9808 924.99 -25.9599ZM927.93 -19.9967C928.863 -19.9967 929.59 -20.482 930.11 -21.4526C930.63 -22.4365 930.89 -23.9389 930.89 -25.9599C930.89 -27.675 930.723 -29.0046 930.39 -29.9486L925.95 -21.0338C926.43 -20.3424 927.09 -19.9967 927.93 -19.9967Z" fill="url(#paint47_linear_175_1885)"/>
<path d="M929.13 2.63655H932.07V3.69356H924.45V2.63655H927.85V-8.57181L924.61 -6.63727L924.05 -7.53474L928.05 -10.0078H929.13V2.63655Z" fill="url(#paint48_linear_175_1885)"/>
<path d="M927.93 12.5856C929.356 12.5856 930.436 13.1906 931.17 14.4005C931.916 15.5971 932.29 17.3389 932.29 19.6257C932.29 21.9126 931.916 23.661 931.17 24.8709C930.436 26.0808 929.356 26.6858 927.93 26.6858C926.517 26.6858 925.437 26.0808 924.69 24.8709C923.943 23.661 923.57 21.9126 923.57 19.6257C923.57 17.3521 923.943 15.6104 924.69 14.4005C925.437 13.1906 926.517 12.5856 927.93 12.5856ZM924.99 19.6257C924.99 21.2478 925.137 22.5176 925.43 23.435L929.87 14.5999C929.403 13.975 928.756 13.6626 927.93 13.6626C927.01 13.6626 926.29 14.1545 925.77 15.1384C925.25 16.109 924.99 17.6048 924.99 19.6257ZM927.93 25.5889C928.863 25.5889 929.59 25.1036 930.11 24.133C930.63 23.1491 930.89 21.6467 930.89 19.6257C930.89 17.9106 930.723 16.581 930.39 15.637L925.95 24.5518C926.43 25.2432 927.09 25.5889 927.93 25.5889Z" fill="url(#paint49_linear_175_1885)"/>
<path d="M929.13 48.2221H932.07V49.2792H924.45V48.2221H927.85V37.0138L924.61 38.9483L924.05 38.0509L928.05 35.5778H929.13V48.2221Z" fill="url(#paint50_linear_175_1885)"/>
<path d="M929.13 71.015H932.07V72.072H924.45V71.015H927.85V59.8066L924.61 61.7411L924.05 60.8437L928.05 58.3706H929.13V71.015Z" fill="url(#paint51_linear_175_1885)"/>
<path d="M927.93 80.964C929.356 80.964 930.436 81.569 931.17 82.7789C931.916 83.9755 932.29 85.7173 932.29 88.0041C932.29 90.291 931.916 92.0394 931.17 93.2493C930.436 94.4593 929.356 95.0642 927.93 95.0642C926.517 95.0642 925.437 94.4593 924.69 93.2493C923.943 92.0394 923.57 90.291 923.57 88.0041C923.57 85.7306 923.943 83.9888 924.69 82.7789C925.437 81.569 926.517 80.964 927.93 80.964ZM924.99 88.0041C924.99 89.6262 925.137 90.896 925.43 91.8134L929.87 82.9783C929.403 82.3534 928.756 82.041 927.93 82.041C927.01 82.041 926.29 82.5329 925.77 83.5168C925.25 84.4874 924.99 85.9832 924.99 88.0041ZM927.93 93.9673C928.863 93.9673 929.59 93.482 930.11 92.5114C930.63 91.5275 930.89 90.0251 930.89 88.0041C930.89 86.289 930.723 84.9594 930.39 84.0154L925.95 92.9302C926.43 93.6216 927.09 93.9673 927.93 93.9673Z" fill="url(#paint52_linear_175_1885)"/>
<path d="M929.13 116.601H932.07V117.658H924.45V116.601H927.85V105.392L924.61 107.327L924.05 106.429L928.05 103.956H929.13V116.601Z" fill="url(#paint53_linear_175_1885)"/>
<path d="M927.93 126.55C929.356 126.55 930.436 127.155 931.17 128.365C931.916 129.561 932.29 131.303 932.29 133.59C932.29 135.877 931.916 137.625 931.17 138.835C930.436 140.045 929.356 140.65 927.93 140.65C926.517 140.65 925.437 140.045 924.69 138.835C923.943 137.625 923.57 135.877 923.57 133.59C923.57 131.316 923.943 129.574 924.69 128.365C925.437 127.155 926.517 126.55 927.93 126.55ZM924.99 133.59C924.99 135.212 925.137 136.482 925.43 137.399L929.87 128.564C929.403 127.939 928.756 127.627 927.93 127.627C927.01 127.627 926.29 128.119 925.77 129.102C925.25 130.073 924.99 131.569 924.99 133.59ZM927.93 139.553C928.863 139.553 929.59 139.068 930.11 138.097C930.63 137.113 930.89 135.611 930.89 133.59C930.89 131.875 930.723 130.545 930.39 129.601L925.95 138.516C926.43 139.207 927.09 139.553 927.93 139.553Z" fill="url(#paint54_linear_175_1885)"/>
<path d="M927.93 149.342C929.356 149.342 930.436 149.947 931.17 151.157C931.916 152.354 932.29 154.096 932.29 156.383C932.29 158.669 931.916 160.418 931.17 161.628C930.436 162.838 929.356 163.443 927.93 163.443C926.517 163.443 925.437 162.838 924.69 161.628C923.943 160.418 923.57 158.669 923.57 156.383C923.57 154.109 923.943 152.367 924.69 151.157C925.437 149.947 926.517 149.342 927.93 149.342ZM924.99 156.383C924.99 158.005 925.137 159.274 925.43 160.192L929.87 151.357C929.403 150.732 928.756 150.419 927.93 150.419C927.01 150.419 926.29 150.911 925.77 151.895C925.25 152.866 924.99 154.362 924.99 156.383ZM927.93 162.346C928.863 162.346 929.59 161.86 930.11 160.89C930.63 159.906 930.89 158.404 930.89 156.383C930.89 154.667 930.723 153.338 930.39 152.394L925.95 161.309C926.43 162 927.09 162.346 927.93 162.346Z" fill="url(#paint55_linear_175_1885)"/>
<path d="M929.13 184.979H932.07V186.036H924.45V184.979H927.85V173.771L924.61 175.705L924.05 174.808L928.05 172.335H929.13V184.979Z" fill="url(#paint56_linear_175_1885)"/>
<path d="M927.93 194.928C929.356 194.928 930.436 195.533 931.17 196.743C931.916 197.94 932.29 199.681 932.29 201.968C932.29 204.255 931.916 206.003 931.17 207.213C930.436 208.423 929.356 209.028 927.93 209.028C926.517 209.028 925.437 208.423 924.69 207.213C923.943 206.003 923.57 204.255 923.57 201.968C923.57 199.695 923.943 197.953 924.69 196.743C925.437 195.533 926.517 194.928 927.93 194.928ZM924.99 201.968C924.99 203.59 925.137 204.86 925.43 205.777L929.87 196.942C929.403 196.317 928.756 196.005 927.93 196.005C927.01 196.005 926.29 196.497 925.77 197.481C925.25 198.451 924.99 199.947 924.99 201.968ZM927.93 207.931C928.863 207.931 929.59 207.446 930.11 206.475C930.63 205.492 930.89 203.989 930.89 201.968C930.89 200.253 930.723 198.923 930.39 197.979L925.95 206.894C926.43 207.586 927.09 207.931 927.93 207.931Z" fill="url(#paint57_linear_175_1885)"/>
<path d="M929.13 230.565H932.07V231.622H924.45V230.565H927.85V219.356L924.61 221.291L924.05 220.393L928.05 217.92H929.13V230.565Z" fill="url(#paint58_linear_175_1885)"/>
<path d="M929.13 253.357H932.07V254.414H924.45V253.357H927.85V242.149L924.61 244.084L924.05 243.186L928.05 240.713H929.13V253.357Z" fill="url(#paint59_linear_175_1885)"/>
<path d="M965.07 12.5856C966.497 12.5856 967.577 13.1906 968.31 14.4005C969.057 15.5971 969.43 17.3389 969.43 19.6257C969.43 21.9126 969.057 23.661 968.31 24.8709C967.577 26.0808 966.497 26.6858 965.07 26.6858C963.657 26.6858 962.577 26.0808 961.83 24.8709C961.084 23.661 960.71 21.9126 960.71 19.6257C960.71 17.3521 961.084 15.6104 961.83 14.4005C962.577 13.1906 963.657 12.5856 965.07 12.5856ZM962.13 19.6257C962.13 21.2478 962.277 22.5176 962.57 23.435L967.01 14.5999C966.543 13.975 965.897 13.6626 965.07 13.6626C964.15 13.6626 963.43 14.1545 962.91 15.1384C962.39 16.109 962.13 17.6048 962.13 19.6257ZM965.07 25.5889C966.003 25.5889 966.73 25.1036 967.25 24.133C967.77 23.1491 968.03 21.6467 968.03 19.6257C968.03 17.9106 967.863 16.581 967.53 15.637L963.09 24.5518C963.57 25.2432 964.23 25.5889 965.07 25.5889Z" fill="url(#paint60_linear_175_1885)"/>
<path d="M966.27 48.2221H969.21V49.2792H961.59V48.2221H964.99V37.0138L961.75 38.9483L961.19 38.0509L965.19 35.5778H966.27V48.2221Z" fill="url(#paint61_linear_175_1885)"/>
<path d="M965.07 58.1712C966.497 58.1712 967.577 58.7762 968.31 59.9861C969.057 61.1827 969.43 62.9245 969.43 65.2113C969.43 67.4982 969.057 69.2466 968.31 70.4565C967.577 71.6665 966.497 72.2714 965.07 72.2714C963.657 72.2714 962.577 71.6665 961.83 70.4565C961.084 69.2466 960.71 67.4982 960.71 65.2113C960.71 62.9378 961.084 61.196 961.83 59.9861C962.577 58.7762 963.657 58.1712 965.07 58.1712ZM962.13 65.2113C962.13 66.8334 962.277 68.1032 962.57 69.0206L967.01 60.1855C966.543 59.5606 965.897 59.2482 965.07 59.2482C964.15 59.2482 963.43 59.7401 962.91 60.724C962.39 61.6946 962.13 63.1904 962.13 65.2113ZM965.07 71.1745C966.003 71.1745 966.73 70.6892 967.25 69.7186C967.77 68.7347 968.03 67.2323 968.03 65.2113C968.03 63.4962 967.863 62.1666 967.53 61.2226L963.09 70.1374C963.57 70.8288 964.23 71.1745 965.07 71.1745Z" fill="url(#paint62_linear_175_1885)"/>
<path d="M965.07 80.964C966.497 80.964 967.577 81.569 968.31 82.7789C969.057 83.9755 969.43 85.7173 969.43 88.0041C969.43 90.291 969.057 92.0394 968.31 93.2493C967.577 94.4593 966.497 95.0642 965.07 95.0642C963.657 95.0642 962.577 94.4593 961.83 93.2493C961.084 92.0394 960.71 90.291 960.71 88.0041C960.71 85.7306 961.084 83.9888 961.83 82.7789C962.577 81.569 963.657 80.964 965.07 80.964ZM962.13 88.0041C962.13 89.6262 962.277 90.896 962.57 91.8134L967.01 82.9783C966.543 82.3534 965.897 82.041 965.07 82.041C964.15 82.041 963.43 82.5329 962.91 83.5168C962.39 84.4874 962.13 85.9832 962.13 88.0041ZM965.07 93.9673C966.003 93.9673 966.73 93.482 967.25 92.5114C967.77 91.5275 968.03 90.0251 968.03 88.0041C968.03 86.289 967.863 84.9594 967.53 84.0154L963.09 92.9302C963.57 93.6216 964.23 93.9673 965.07 93.9673Z" fill="url(#paint63_linear_175_1885)"/>
<path d="M966.27 116.601H969.21V117.658H961.59V116.601H964.99V105.392L961.75 107.327L961.19 106.429L965.19 103.956H966.27V116.601Z" fill="url(#paint64_linear_175_1885)"/>
<path d="M965.07 126.55C966.497 126.55 967.577 127.155 968.31 128.365C969.057 129.561 969.43 131.303 969.43 133.59C969.43 135.877 969.057 137.625 968.31 138.835C967.577 140.045 966.497 140.65 965.07 140.65C963.657 140.65 962.577 140.045 961.83 138.835C961.084 137.625 960.71 135.877 960.71 133.59C960.71 131.316 961.084 129.574 961.83 128.365C962.577 127.155 963.657 126.55 965.07 126.55ZM962.13 133.59C962.13 135.212 962.277 136.482 962.57 137.399L967.01 128.564C966.543 127.939 965.897 127.627 965.07 127.627C964.15 127.627 963.43 128.119 962.91 129.102C962.39 130.073 962.13 131.569 962.13 133.59ZM965.07 139.553C966.003 139.553 966.73 139.068 967.25 138.097C967.77 137.113 968.03 135.611 968.03 133.59C968.03 131.875 967.863 130.545 967.53 129.601L963.09 138.516C963.57 139.207 964.23 139.553 965.07 139.553Z" fill="url(#paint65_linear_175_1885)"/>
<path d="M966.27 162.186H969.21V163.243H961.59V162.186H964.99V150.978L961.75 152.912L961.19 152.015L965.19 149.542H966.27V162.186Z" fill="url(#paint66_linear_175_1885)"/>
<path d="M965.07 172.135C966.497 172.135 967.577 172.74 968.31 173.95C969.057 175.147 969.43 176.888 969.43 179.175C969.43 181.462 969.057 183.211 968.31 184.421C967.577 185.63 966.497 186.235 965.07 186.235C963.657 186.235 962.577 185.63 961.83 184.421C961.084 183.211 960.71 181.462 960.71 179.175C960.71 176.902 961.084 175.16 961.83 173.95C962.577 172.74 963.657 172.135 965.07 172.135ZM962.13 179.175C962.13 180.797 962.277 182.067 962.57 182.985L967.01 174.15C966.543 173.525 965.897 173.212 965.07 173.212C964.15 173.212 963.43 173.704 962.91 174.688C962.39 175.659 962.13 177.154 962.13 179.175ZM965.07 185.139C966.003 185.139 966.73 184.653 967.25 183.683C967.77 182.699 968.03 181.196 968.03 179.175C968.03 177.46 967.863 176.131 967.53 175.187L963.09 184.101C963.57 184.793 964.23 185.139 965.07 185.139Z" fill="url(#paint67_linear_175_1885)"/>
<path d="M965.07 194.928C966.497 194.928 967.577 195.533 968.31 196.743C969.057 197.94 969.43 199.681 969.43 201.968C969.43 204.255 969.057 206.003 968.31 207.213C967.577 208.423 966.497 209.028 965.07 209.028C963.657 209.028 962.577 208.423 961.83 207.213C961.084 206.003 960.71 204.255 960.71 201.968C960.71 199.695 961.084 197.953 961.83 196.743C962.577 195.533 963.657 194.928 965.07 194.928ZM962.13 201.968C962.13 203.59 962.277 204.86 962.57 205.777L967.01 196.942C966.543 196.317 965.897 196.005 965.07 196.005C964.15 196.005 963.43 196.497 962.91 197.481C962.39 198.451 962.13 199.947 962.13 201.968ZM965.07 207.931C966.003 207.931 966.73 207.446 967.25 206.475C967.77 205.492 968.03 203.989 968.03 201.968C968.03 200.253 967.863 198.923 967.53 197.979L963.09 206.894C963.57 207.586 964.23 207.931 965.07 207.931Z" fill="url(#paint68_linear_175_1885)"/>
<path d="M966.27 230.565H969.21V231.622H961.59V230.565H964.99V219.356L961.75 221.291L961.19 220.393L965.19 217.92H966.27V230.565Z" fill="url(#paint69_linear_175_1885)"/>
<path d="M965.07 240.514C966.497 240.514 967.577 241.119 968.31 242.329C969.057 243.525 969.43 245.267 969.43 247.554C969.43 249.841 969.057 251.589 968.31 252.799C967.577 254.009 966.497 254.614 965.07 254.614C963.657 254.614 962.577 254.009 961.83 252.799C961.084 251.589 960.71 249.841 960.71 247.554C960.71 245.28 961.084 243.538 961.83 242.329C962.577 241.119 963.657 240.514 965.07 240.514ZM962.13 247.554C962.13 249.176 962.277 250.446 962.57 251.363L967.01 242.528C966.543 241.903 965.897 241.591 965.07 241.591C964.15 241.591 963.43 242.083 962.91 243.066C962.39 244.037 962.13 245.533 962.13 247.554ZM965.07 253.517C966.003 253.517 966.73 253.032 967.25 252.061C967.77 251.077 968.03 249.575 968.03 247.554C968.03 245.839 967.863 244.509 967.53 243.565L963.09 252.48C963.57 253.171 964.23 253.517 965.07 253.517Z" fill="url(#paint70_linear_175_1885)"/>
<path d="M966.27 276.15H969.21V277.207H961.59V276.15H964.99V264.942L961.75 266.876L961.19 265.979L965.19 263.506H966.27V276.15Z" fill="url(#paint71_linear_175_1885)"/>
<path d="M966.27 298.943H969.21V300H961.59V298.943H964.99V287.735L961.75 289.669L961.19 288.772L965.19 286.299H966.27V298.943Z" fill="url(#paint72_linear_175_1885)"/>
<path d="M909.36 35.3784C910.786 35.3784 911.866 35.9834 912.599 37.1933C913.346 38.3899 913.719 40.1317 913.719 42.4185C913.719 44.7054 913.346 46.4538 912.599 47.6637C911.866 48.8736 910.786 49.4786 909.36 49.4786C907.946 49.4786 906.867 48.8736 906.12 47.6637C905.373 46.4538 905 44.7054 905 42.4185C905 40.145 905.373 38.4032 906.12 37.1933C906.867 35.9834 907.946 35.3784 909.36 35.3784ZM906.42 42.4185C906.42 44.0406 906.567 45.3104 906.86 46.2278L911.3 37.3927C910.833 36.7678 910.186 36.4554 909.36 36.4554C908.44 36.4554 907.72 36.9473 907.2 37.9312C906.68 38.9018 906.42 40.3976 906.42 42.4185ZM909.36 48.3817C910.293 48.3817 911.02 47.8964 911.54 46.9258C912.06 45.9419 912.319 44.4395 912.319 42.4185C912.319 40.7034 912.153 39.3738 911.82 38.4298L907.38 47.3446C907.86 48.036 908.52 48.3817 909.36 48.3817Z" fill="url(#paint73_linear_175_1885)"/>
<path d="M909.36 58.1712C910.786 58.1712 911.866 58.7762 912.599 59.9861C913.346 61.1827 913.719 62.9245 913.719 65.2113C913.719 67.4982 913.346 69.2466 912.599 70.4565C911.866 71.6665 910.786 72.2714 909.36 72.2714C907.946 72.2714 906.867 71.6665 906.12 70.4565C905.373 69.2466 905 67.4982 905 65.2113C905 62.9378 905.373 61.196 906.12 59.9861C906.867 58.7762 907.946 58.1712 909.36 58.1712ZM906.42 65.2113C906.42 66.8334 906.567 68.1032 906.86 69.0206L911.3 60.1855C910.833 59.5606 910.186 59.2482 909.36 59.2482C908.44 59.2482 907.72 59.7401 907.2 60.724C906.68 61.6946 906.42 63.1904 906.42 65.2113ZM909.36 71.1745C910.293 71.1745 911.02 70.6892 911.54 69.7186C912.06 68.7347 912.319 67.2323 912.319 65.2113C912.319 63.4962 912.153 62.1666 911.82 61.2226L907.38 70.1374C907.86 70.8288 908.52 71.1745 909.36 71.1745Z" fill="url(#paint74_linear_175_1885)"/>
<path d="M910.56 93.8078H913.499V94.8648H905.88V93.8078H909.28V82.5994L906.04 84.5339L905.48 83.6365L909.48 81.1635H910.56V93.8078Z" fill="url(#paint75_linear_175_1885)"/>
<path d="M909.36 103.757C910.786 103.757 911.866 104.362 912.599 105.572C913.346 106.768 913.719 108.51 913.719 110.797C913.719 113.084 913.346 114.832 912.599 116.042C911.866 117.252 910.786 117.857 909.36 117.857C907.946 117.857 906.867 117.252 906.12 116.042C905.373 114.832 905 113.084 905 110.797C905 108.523 905.373 106.782 906.12 105.572C906.867 104.362 907.946 103.757 909.36 103.757ZM906.42 110.797C906.42 112.419 906.567 113.689 906.86 114.606L911.3 105.771C910.833 105.146 910.186 104.834 909.36 104.834C908.44 104.834 907.72 105.326 907.2 106.31C906.68 107.28 906.42 108.776 906.42 110.797ZM909.36 116.76C910.293 116.76 911.02 116.275 911.54 115.304C912.06 114.32 912.319 112.818 912.319 110.797C912.319 109.082 912.153 107.752 911.82 106.808L907.38 115.723C907.86 116.414 908.52 116.76 909.36 116.76Z" fill="url(#paint76_linear_175_1885)"/>
<path d="M910.56 139.393H913.499V140.45H905.88V139.393H909.28V128.185L906.04 130.12L905.48 129.222L909.48 126.749H910.56V139.393Z" fill="url(#paint77_linear_175_1885)"/>
<path d="M910.56 162.186H913.499V163.243H905.88V162.186H909.28V150.978L906.04 152.912L905.48 152.015L909.48 149.542H910.56V162.186Z" fill="url(#paint78_linear_175_1885)"/>
<path d="M947.7 2.63655H950.64V3.69356H943.02V2.63655H946.42V-8.57181L943.18 -6.63727L942.62 -7.53474L946.62 -10.0078H947.7V2.63655Z" fill="url(#paint79_linear_175_1885)"/>
<path d="M946.5 12.5856C947.927 12.5856 949.006 13.1906 949.74 14.4005C950.486 15.5971 950.86 17.3389 950.86 19.6257C950.86 21.9126 950.486 23.661 949.74 24.8709C949.006 26.0808 947.927 26.6858 946.5 26.6858C945.087 26.6858 944.007 26.0808 943.26 24.8709C942.514 23.661 942.14 21.9126 942.14 19.6257C942.14 17.3521 942.514 15.6104 943.26 14.4005C944.007 13.1906 945.087 12.5856 946.5 12.5856ZM943.56 19.6257C943.56 21.2478 943.707 22.5176 944 23.435L948.44 14.5999C947.973 13.975 947.327 13.6626 946.5 13.6626C945.58 13.6626 944.86 14.1545 944.34 15.1384C943.82 16.109 943.56 17.6048 943.56 19.6257ZM946.5 25.5889C947.433 25.5889 948.16 25.1036 948.68 24.133C949.2 23.1491 949.46 21.6467 949.46 19.6257C949.46 17.9106 949.293 16.581 948.96 15.637L944.52 24.5518C945 25.2432 945.66 25.5889 946.5 25.5889Z" fill="url(#paint80_linear_175_1885)"/>
<path d="M947.7 48.2221H950.64V49.2792H943.02V48.2221H946.42V37.0138L943.18 38.9483L942.62 38.0509L946.62 35.5778H947.7V48.2221Z" fill="url(#paint81_linear_175_1885)"/>
<path d="M947.7 71.015H950.64V72.072H943.02V71.015H946.42V59.8066L943.18 61.7411L942.62 60.8437L946.62 58.3706H947.7V71.015Z" fill="url(#paint82_linear_175_1885)"/>
<path d="M946.5 80.964C947.927 80.964 949.006 81.569 949.74 82.7789C950.486 83.9755 950.86 85.7173 950.86 88.0041C950.86 90.291 950.486 92.0394 949.74 93.2493C949.006 94.4593 947.927 95.0642 946.5 95.0642C945.087 95.0642 944.007 94.4593 943.26 93.2493C942.514 92.0394 942.14 90.291 942.14 88.0041C942.14 85.7306 942.514 83.9888 943.26 82.7789C944.007 81.569 945.087 80.964 946.5 80.964ZM943.56 88.0041C943.56 89.6262 943.707 90.896 944 91.8134L948.44 82.9783C947.973 82.3534 947.327 82.041 946.5 82.041C945.58 82.041 944.86 82.5329 944.34 83.5168C943.82 84.4874 943.56 85.9832 943.56 88.0041ZM946.5 93.9673C947.433 93.9673 948.16 93.482 948.68 92.5114C949.2 91.5275 949.46 90.0251 949.46 88.0041C949.46 86.289 949.293 84.9594 948.96 84.0154L944.52 92.9302C945 93.6216 945.66 93.9673 946.5 93.9673Z" fill="url(#paint83_linear_175_1885)"/>
<path d="M947.7 116.601H950.64V117.658H943.02V116.601H946.42V105.392L943.18 107.327L942.62 106.429L946.62 103.956H947.7V116.601Z" fill="url(#paint84_linear_175_1885)"/>
<path d="M947.7 139.393H950.64V140.45H943.02V139.393H946.42V128.185L943.18 130.12L942.62 129.222L946.62 126.749H947.7V139.393Z" fill="url(#paint85_linear_175_1885)"/>
<path d="M946.5 149.342C947.927 149.342 949.006 149.947 949.74 151.157C950.486 152.354 950.86 154.096 950.86 156.383C950.86 158.669 950.486 160.418 949.74 161.628C949.006 162.838 947.927 163.443 946.5 163.443C945.087 163.443 944.007 162.838 943.26 161.628C942.514 160.418 942.14 158.669 942.14 156.383C942.14 154.109 942.514 152.367 943.26 151.157C944.007 149.947 945.087 149.342 946.5 149.342ZM943.56 156.383C943.56 158.005 943.707 159.274 944 160.192L948.44 151.357C947.973 150.732 947.327 150.419 946.5 150.419C945.58 150.419 944.86 150.911 944.34 151.895C943.82 152.866 943.56 154.362 943.56 156.383ZM946.5 162.346C947.433 162.346 948.16 161.86 948.68 160.89C949.2 159.906 949.46 158.404 949.46 156.383C949.46 154.667 949.293 153.338 948.96 152.394L944.52 161.309C945 162 945.66 162.346 946.5 162.346Z" fill="url(#paint86_linear_175_1885)"/>
<path d="M947.7 184.979H950.64V186.036H943.02V184.979H946.42V173.771L943.18 175.705L942.62 174.808L946.62 172.335H947.7V184.979Z" fill="url(#paint87_linear_175_1885)"/>
<path d="M946.5 194.928C947.927 194.928 949.006 195.533 949.74 196.743C950.486 197.94 950.86 199.681 950.86 201.968C950.86 204.255 950.486 206.003 949.74 207.213C949.006 208.423 947.927 209.028 946.5 209.028C945.087 209.028 944.007 208.423 943.26 207.213C942.514 206.003 942.14 204.255 942.14 201.968C942.14 199.695 942.514 197.953 943.26 196.743C944.007 195.533 945.087 194.928 946.5 194.928ZM943.56 201.968C943.56 203.59 943.707 204.86 944 205.777L948.44 196.942C947.973 196.317 947.327 196.005 946.5 196.005C945.58 196.005 944.86 196.497 944.34 197.481C943.82 198.451 943.56 199.947 943.56 201.968ZM946.5 207.931C947.433 207.931 948.16 207.446 948.68 206.475C949.2 205.492 949.46 203.989 949.46 201.968C949.46 200.253 949.293 198.923 948.96 197.979L944.52 206.894C945 207.586 945.66 207.931 946.5 207.931Z" fill="url(#paint88_linear_175_1885)"/>
<path d="M983.64 -10.2072C985.067 -10.2072 986.147 -9.60224 986.88 -8.39232C987.627 -7.1957 988 -5.45395 988 -3.16707C988 -0.880196 987.627 0.868206 986.88 2.07812C986.147 3.28804 985.067 3.893 983.64 3.893C982.227 3.893 981.147 3.28804 980.401 2.07812C979.654 0.868206 979.281 -0.880196 979.281 -3.16707C979.281 -5.44065 979.654 -7.1824 980.401 -8.39232C981.147 -9.60224 982.227 -10.2072 983.64 -10.2072ZM980.701 -3.16707C980.701 -1.54498 980.847 -0.27523 981.14 0.642178L985.58 -8.19288C985.114 -8.81779 984.467 -9.13024 983.64 -9.13024C982.72 -9.13024 982 -8.63829 981.48 -7.6544C980.96 -6.68381 980.701 -5.18803 980.701 -3.16707ZM983.64 2.7961C984.574 2.7961 985.3 2.3108 985.82 1.34021C986.34 0.356319 986.6 -1.14611 986.6 -3.16707C986.6 -4.88223 986.433 -6.21181 986.1 -7.15581L981.66 1.75902C982.14 2.45041 982.8 2.7961 983.64 2.7961Z" fill="url(#paint89_linear_175_1885)"/>
<path d="M984.84 25.4293H987.78V26.4864H980.161V25.4293H983.56V14.221L980.321 16.1555L979.761 15.2581L983.76 12.785H984.84V25.4293Z" fill="url(#paint90_linear_175_1885)"/>
<path d="M984.84 48.2221H987.78V49.2792H980.161V48.2221H983.56V37.0138L980.321 38.9483L979.761 38.0509L983.76 35.5778H984.84V48.2221Z" fill="url(#paint91_linear_175_1885)"/>
<path d="M983.64 58.1712C985.067 58.1712 986.147 58.7762 986.88 59.9861C987.627 61.1827 988 62.9245 988 65.2113C988 67.4982 987.627 69.2466 986.88 70.4565C986.147 71.6665 985.067 72.2714 983.64 72.2714C982.227 72.2714 981.147 71.6665 980.401 70.4565C979.654 69.2466 979.281 67.4982 979.281 65.2113C979.281 62.9378 979.654 61.196 980.401 59.9861C981.147 58.7762 982.227 58.1712 983.64 58.1712ZM980.701 65.2113C980.701 66.8334 980.847 68.1032 981.14 69.0206L985.58 60.1855C985.114 59.5606 984.467 59.2482 983.64 59.2482C982.72 59.2482 982 59.7401 981.48 60.724C980.96 61.6946 980.701 63.1904 980.701 65.2113ZM983.64 71.1745C984.574 71.1745 985.3 70.6892 985.82 69.7186C986.34 68.7347 986.6 67.2323 986.6 65.2113C986.6 63.4962 986.433 62.1666 986.1 61.2226L981.66 70.1374C982.14 70.8288 982.8 71.1745 983.64 71.1745Z" fill="url(#paint92_linear_175_1885)"/>
<path d="M983.64 80.964C985.067 80.964 986.147 81.569 986.88 82.7789C987.627 83.9755 988 85.7173 988 88.0041C988 90.291 987.627 92.0394 986.88 93.2493C986.147 94.4593 985.067 95.0642 983.64 95.0642C982.227 95.0642 981.147 94.4593 980.401 93.2493C979.654 92.0394 979.281 90.291 979.281 88.0041C979.281 85.7306 979.654 83.9888 980.401 82.7789C981.147 81.569 982.227 80.964 983.64 80.964ZM980.701 88.0041C980.701 89.6262 980.847 90.896 981.14 91.8134L985.58 82.9783C985.114 82.3534 984.467 82.041 983.64 82.041C982.72 82.041 982 82.5329 981.48 83.5168C980.96 84.4874 980.701 85.9832 980.701 88.0041ZM983.64 93.9673C984.574 93.9673 985.3 93.482 985.82 92.5114C986.34 91.5275 986.6 90.0251 986.6 88.0041C986.6 86.289 986.433 84.9594 986.1 84.0154L981.66 92.9302C982.14 93.6216 982.8 93.9673 983.64 93.9673Z" fill="url(#paint93_linear_175_1885)"/>
</g>
<defs>
<filter id="filter0_f_175_1885" x="-550.19" y="-719.19" width="2141.38" height="1500.38" filterUnits="userSpaceOnUse" color-interpolation-filters="sRGB">
<feFlood flood-opacity="0" result="BackgroundImageFix"/>
<feBlend mode="normal" in="SourceGraphic" in2="BackgroundImageFix" result="shape"/>
<feGaussianBlur stdDeviation="200.095" result="effect1_foregroundBlur_175_1885"/>
</filter>
<linearGradient id="paint0_linear_175_1885" x1="60.5" y1="267" x2="60.5" y2="578.381" gradientUnits="userSpaceOnUse">
<stop stop-color="#F7DD43"/>
<stop offset="1" stop-color="#F7DD43" stop-opacity="0"/>
</linearGradient>
<linearGradient id="paint1_linear_175_1885" x1="60.5" y1="267" x2="60.5" y2="578.381" gradientUnits="userSpaceOnUse">
<stop stop-color="#F7DD43"/>
<stop offset="1" stop-color="#F7DD43" stop-opacity="0"/>
</linearGradient>
<linearGradient id="paint2_linear_175_1885" x1="60.5" y1="267" x2="60.5" y2="578.381" gradientUnits="userSpaceOnUse">
<stop stop-color="#F7DD43"/>
<stop offset="1" stop-color="#F7DD43" stop-opacity="0"/>
</linearGradient>
<linearGradient id="paint3_linear_175_1885" x1="60.5" y1="267" x2="60.5" y2="578.381" gradientUnits="userSpaceOnUse">
<stop stop-color="#F7DD43"/>
<stop offset="1" stop-color="#F7DD43" stop-opacity="0"/>
</linearGradient>
<linearGradient id="paint4_linear_175_1885" x1="60.5" y1="267" x2="60.5" y2="578.381" gradientUnits="userSpaceOnUse">
<stop stop-color="#F7DD43"/>
<stop offset="1" stop-color="#F7DD43" stop-opacity="0"/>
</linearGradient>
<linearGradient id="paint5_linear_175_1885" x1="60.5" y1="267" x2="60.5" y2="578.381" gradientUnits="userSpaceOnUse">
<stop stop-color="#F7DD43"/>
<stop offset="1" stop-color="#F7DD43" stop-opacity="0"/>
</linearGradient>
<linearGradient id="paint6_linear_175_1885" x1="60.5" y1="267" x2="60.5" y2="578.381" gradientUnits="userSpaceOnUse">
<stop stop-color="#F7DD43"/>
<stop offset="1" stop-color="#F7DD43" stop-opacity="0"/>
</linearGradient>
<linearGradient id="paint7_linear_175_1885" x1="60.5" y1="267" x2="60.5" y2="578.381" gradientUnits="userSpaceOnUse">
<stop stop-color="#F7DD43"/>
<stop offset="1" stop-color="#F7DD43" stop-opacity="0"/>
</linearGradient>
<linearGradient id="paint8_linear_175_1885" x1="60.5" y1="267" x2="60.5" y2="578.381" gradientUnits="userSpaceOnUse">
<stop stop-color="#F7DD43"/>
<stop offset="1" stop-color="#F7DD43" stop-opacity="0"/>
</linearGradient>
<linearGradient id="paint9_linear_175_1885" x1="60.5" y1="267" x2="60.5" y2="578.381" gradientUnits="userSpaceOnUse">
<stop stop-color="#F7DD43"/>
<stop offset="1" stop-color="#F7DD43" stop-opacity="0"/>
</linearGradient>
<linearGradient id="paint10_linear_175_1885" x1="60.5" y1="267" x2="60.5" y2="578.381" gradientUnits="userSpaceOnUse">
<stop stop-color="#F7DD43"/>
<stop offset="1" stop-color="#F7DD43" stop-opacity="0"/>
</linearGradient>
<linearGradient id="paint11_linear_175_1885" x1="60.5" y1="267" x2="60.5" y2="578.381" gradientUnits="userSpaceOnUse">
<stop stop-color="#F7DD43"/>
<stop offset="1" stop-color="#F7DD43" stop-opacity="0"/>
</linearGradient>
<linearGradient id="paint12_linear_175_1885" x1="60.5" y1="267" x2="60.5" y2="578.381" gradientUnits="userSpaceOnUse">
<stop stop-color="#F7DD43"/>
<stop offset="1" stop-color="#F7DD43" stop-opacity="0"/>
</linearGradient>
<linearGradient id="paint13_linear_175_1885" x1="60.5" y1="267" x2="60.5" y2="578.381" gradientUnits="userSpaceOnUse">
<stop stop-color="#F7DD43"/>
<stop offset="1" stop-color="#F7DD43" stop-opacity="0"/>
</linearGradient>
<linearGradient id="paint14_linear_175_1885" x1="60.5" y1="267" x2="60.5" y2="578.381" gradientUnits="userSpaceOnUse">
<stop stop-color="#F7DD43"/>
<stop offset="1" stop-color="#F7DD43" stop-opacity="0"/>
</linearGradient>
<linearGradient id="paint15_linear_175_1885" x1="60.5" y1="267" x2="60.5" y2="578.381" gradientUnits="userSpaceOnUse">
<stop stop-color="#F7DD43"/>
<stop offset="1" stop-color="#F7DD43" stop-opacity="0"/>
</linearGradient>
<linearGradient id="paint16_linear_175_1885" x1="60.5" y1="267" x2="60.5" y2="578.381" gradientUnits="userSpaceOnUse">
<stop stop-color="#F7DD43"/>
<stop offset="1" stop-color="#F7DD43" stop-opacity="0"/>
</linearGradient>
<linearGradient id="paint17_linear_175_1885" x1="60.5" y1="267" x2="60.5" y2="578.381" gradientUnits="userSpaceOnUse">
<stop stop-color="#F7DD43"/>
<stop offset="1" stop-color="#F7DD43" stop-opacity="0"/>
</linearGradient>
<linearGradient id="paint18_linear_175_1885" x1="60.5" y1="267" x2="60.5" y2="578.381" gradientUnits="userSpaceOnUse">
<stop stop-color="#F7DD43"/>
<stop offset="1" stop-color="#F7DD43" stop-opacity="0"/>
</linearGradient>
<linearGradient id="paint19_linear_175_1885" x1="60.5" y1="267" x2="60.5" y2="578.381" gradientUnits="userSpaceOnUse">
<stop stop-color="#F7DD43"/>
<stop offset="1" stop-color="#F7DD43" stop-opacity="0"/>
</linearGradient>
<linearGradient id="paint20_linear_175_1885" x1="60.5" y1="267" x2="60.5" y2="578.381" gradientUnits="userSpaceOnUse">
<stop stop-color="#F7DD43"/>
<stop offset="1" stop-color="#F7DD43" stop-opacity="0"/>
</linearGradient>
<linearGradient id="paint21_linear_175_1885" x1="60.5" y1="267" x2="60.5" y2="578.381" gradientUnits="userSpaceOnUse">
<stop stop-color="#F7DD43"/>
<stop offset="1" stop-color="#F7DD43" stop-opacity="0"/>
</linearGradient>
<linearGradient id="paint22_linear_175_1885" x1="60.5" y1="267" x2="60.5" y2="578.381" gradientUnits="userSpaceOnUse">
<stop stop-color="#F7DD43"/>
<stop offset="1" stop-color="#F7DD43" stop-opacity="0"/>
</linearGradient>
<linearGradient id="paint23_linear_175_1885" x1="60.5" y1="267" x2="60.5" y2="578.381" gradientUnits="userSpaceOnUse">
<stop stop-color="#F7DD43"/>
<stop offset="1" stop-color="#F7DD43" stop-opacity="0"/>
</linearGradient>
<linearGradient id="paint24_linear_175_1885" x1="60.5" y1="267" x2="60.5" y2="578.381" gradientUnits="userSpaceOnUse">
<stop stop-color="#F7DD43"/>
<stop offset="1" stop-color="#F7DD43" stop-opacity="0"/>
</linearGradient>
<linearGradient id="paint25_linear_175_1885" x1="60.5" y1="267" x2="60.5" y2="578.381" gradientUnits="userSpaceOnUse">
<stop stop-color="#F7DD43"/>
<stop offset="1" stop-color="#F7DD43" stop-opacity="0"/>
</linearGradient>
<linearGradient id="paint26_linear_175_1885" x1="60.5" y1="267" x2="60.5" y2="578.381" gradientUnits="userSpaceOnUse">
<stop stop-color="#F7DD43"/>
<stop offset="1" stop-color="#F7DD43" stop-opacity="0"/>
</linearGradient>
<linearGradient id="paint27_linear_175_1885" x1="60.5" y1="267" x2="60.5" y2="578.381" gradientUnits="userSpaceOnUse">
<stop stop-color="#F7DD43"/>
<stop offset="1" stop-color="#F7DD43" stop-opacity="0"/>
</linearGradient>
<linearGradient id="paint28_linear_175_1885" x1="60.5" y1="267" x2="60.5" y2="578.381" gradientUnits="userSpaceOnUse">
<stop stop-color="#F7DD43"/>
<stop offset="1" stop-color="#F7DD43" stop-opacity="0"/>
</linearGradient>
<linearGradient id="paint29_linear_175_1885" x1="60.5" y1="267" x2="60.5" y2="578.381" gradientUnits="userSpaceOnUse">
<stop stop-color="#F7DD43"/>
<stop offset="1" stop-color="#F7DD43" stop-opacity="0"/>
</linearGradient>
<linearGradient id="paint30_linear_175_1885" x1="60.5" y1="267" x2="60.5" y2="578.381" gradientUnits="userSpaceOnUse">
<stop stop-color="#F7DD43"/>
<stop offset="1" stop-color="#F7DD43" stop-opacity="0"/>
</linearGradient>
<linearGradient id="paint31_linear_175_1885" x1="60.5" y1="267" x2="60.5" y2="578.381" gradientUnits="userSpaceOnUse">
<stop stop-color="#F7DD43"/>
<stop offset="1" stop-color="#F7DD43" stop-opacity="0"/>
</linearGradient>
<linearGradient id="paint32_linear_175_1885" x1="60.5" y1="267" x2="60.5" y2="578.381" gradientUnits="userSpaceOnUse">
<stop stop-color="#F7DD43"/>
<stop offset="1" stop-color="#F7DD43" stop-opacity="0"/>
</linearGradient>
<linearGradient id="paint33_linear_175_1885" x1="60.5" y1="267" x2="60.5" y2="578.381" gradientUnits="userSpaceOnUse">
<stop stop-color="#F7DD43"/>
<stop offset="1" stop-color="#F7DD43" stop-opacity="0"/>
</linearGradient>
<linearGradient id="paint34_linear_175_1885" x1="60.5" y1="267" x2="60.5" y2="578.381" gradientUnits="userSpaceOnUse">
<stop stop-color="#F7DD43"/>
<stop offset="1" stop-color="#F7DD43" stop-opacity="0"/>
</linearGradient>
<linearGradient id="paint35_linear_175_1885" x1="60.5" y1="267" x2="60.5" y2="578.381" gradientUnits="userSpaceOnUse">
<stop stop-color="#F7DD43"/>
<stop offset="1" stop-color="#F7DD43" stop-opacity="0"/>
</linearGradient>
<linearGradient id="paint36_linear_175_1885" x1="60.5" y1="267" x2="60.5" y2="578.381" gradientUnits="userSpaceOnUse">
<stop stop-color="#F7DD43"/>
<stop offset="1" stop-color="#F7DD43" stop-opacity="0"/>
</linearGradient>
<linearGradient id="paint37_linear_175_1885" x1="60.5" y1="267" x2="60.5" y2="578.381" gradientUnits="userSpaceOnUse">
<stop stop-color="#F7DD43"/>
<stop offset="1" stop-color="#F7DD43" stop-opacity="0"/>
</linearGradient>
<linearGradient id="paint38_linear_175_1885" x1="60.5" y1="267" x2="60.5" y2="578.381" gradientUnits="userSpaceOnUse">
<stop stop-color="#F7DD43"/>
<stop offset="1" stop-color="#F7DD43" stop-opacity="0"/>
</linearGradient>
<linearGradient id="paint39_linear_175_1885" x1="60.5" y1="267" x2="60.5" y2="578.381" gradientUnits="userSpaceOnUse">
<stop stop-color="#F7DD43"/>
<stop offset="1" stop-color="#F7DD43" stop-opacity="0"/>
</linearGradient>
<linearGradient id="paint40_linear_175_1885" x1="60.5" y1="267" x2="60.5" y2="578.381" gradientUnits="userSpaceOnUse">
<stop stop-color="#F7DD43"/>
<stop offset="1" stop-color="#F7DD43" stop-opacity="0"/>
</linearGradient>
<linearGradient id="paint41_linear_175_1885" x1="60.5" y1="267" x2="60.5" y2="578.381" gradientUnits="userSpaceOnUse">
<stop stop-color="#F7DD43"/>
<stop offset="1" stop-color="#F7DD43" stop-opacity="0"/>
</linearGradient>
<linearGradient id="paint42_linear_175_1885" x1="60.5" y1="267" x2="60.5" y2="578.381" gradientUnits="userSpaceOnUse">
<stop stop-color="#F7DD43"/>
<stop offset="1" stop-color="#F7DD43" stop-opacity="0"/>
</linearGradient>
<linearGradient id="paint43_linear_175_1885" x1="60.5" y1="267" x2="60.5" y2="578.381" gradientUnits="userSpaceOnUse">
<stop stop-color="#F7DD43"/>
<stop offset="1" stop-color="#F7DD43" stop-opacity="0"/>
</linearGradient>
<linearGradient id="paint44_linear_175_1885" x1="60.5" y1="267" x2="60.5" y2="578.381" gradientUnits="userSpaceOnUse">
<stop stop-color="#F7DD43"/>
<stop offset="1" stop-color="#F7DD43" stop-opacity="0"/>
</linearGradient>
<linearGradient id="paint45_linear_175_1885" x1="60.5" y1="267" x2="60.5" y2="578.381" gradientUnits="userSpaceOnUse">
<stop stop-color="#F7DD43"/>
<stop offset="1" stop-color="#F7DD43" stop-opacity="0"/>
</linearGradient>
<linearGradient id="paint46_linear_175_1885" x1="60.5" y1="267" x2="60.5" y2="578.381" gradientUnits="userSpaceOnUse">
<stop stop-color="#F7DD43"/>
<stop offset="1" stop-color="#F7DD43" stop-opacity="0"/>
</linearGradient>
<linearGradient id="paint47_linear_175_1885" x1="946.5" y1="-33" x2="946.5" y2="265.818" gradientUnits="userSpaceOnUse">
<stop stop-color="#F7DD43"/>
<stop offset="1" stop-color="#F7DD43" stop-opacity="0"/>
</linearGradient>
<linearGradient id="paint48_linear_175_1885" x1="946.5" y1="-33" x2="946.5" y2="265.818" gradientUnits="userSpaceOnUse">
<stop stop-color="#F7DD43"/>
<stop offset="1" stop-color="#F7DD43" stop-opacity="0"/>
</linearGradient>
<linearGradient id="paint49_linear_175_1885" x1="946.5" y1="-33" x2="946.5" y2="265.818" gradientUnits="userSpaceOnUse">
<stop stop-color="#F7DD43"/>
<stop offset="1" stop-color="#F7DD43" stop-opacity="0"/>
</linearGradient>
<linearGradient id="paint50_linear_175_1885" x1="946.5" y1="-33" x2="946.5" y2="265.818" gradientUnits="userSpaceOnUse">
<stop stop-color="#F7DD43"/>
<stop offset="1" stop-color="#F7DD43" stop-opacity="0"/>
</linearGradient>
<linearGradient id="paint51_linear_175_1885" x1="946.5" y1="-33" x2="946.5" y2="265.818" gradientUnits="userSpaceOnUse">
<stop stop-color="#F7DD43"/>
<stop offset="1" stop-color="#F7DD43" stop-opacity="0"/>
</linearGradient>
<linearGradient id="paint52_linear_175_1885" x1="946.5" y1="-33" x2="946.5" y2="265.818" gradientUnits="userSpaceOnUse">
<stop stop-color="#F7DD43"/>
<stop offset="1" stop-color="#F7DD43" stop-opacity="0"/>
</linearGradient>
<linearGradient id="paint53_linear_175_1885" x1="946.5" y1="-33" x2="946.5" y2="265.818" gradientUnits="userSpaceOnUse">
<stop stop-color="#F7DD43"/>
<stop offset="1" stop-color="#F7DD43" stop-opacity="0"/>
</linearGradient>
<linearGradient id="paint54_linear_175_1885" x1="946.5" y1="-33" x2="946.5" y2="265.818" gradientUnits="userSpaceOnUse">
<stop stop-color="#F7DD43"/>
<stop offset="1" stop-color="#F7DD43" stop-opacity="0"/>
</linearGradient>
<linearGradient id="paint55_linear_175_1885" x1="946.5" y1="-33" x2="946.5" y2="265.818" gradientUnits="userSpaceOnUse">
<stop stop-color="#F7DD43"/>
<stop offset="1" stop-color="#F7DD43" stop-opacity="0"/>
</linearGradient>
<linearGradient id="paint56_linear_175_1885" x1="946.5" y1="-33" x2="946.5" y2="265.818" gradientUnits="userSpaceOnUse">
<stop stop-color="#F7DD43"/>
<stop offset="1" stop-color="#F7DD43" stop-opacity="0"/>
</linearGradient>
<linearGradient id="paint57_linear_175_1885" x1="946.5" y1="-33" x2="946.5" y2="265.818" gradientUnits="userSpaceOnUse">
<stop stop-color="#F7DD43"/>
<stop offset="1" stop-color="#F7DD43" stop-opacity="0"/>
</linearGradient>
<linearGradient id="paint58_linear_175_1885" x1="946.5" y1="-33" x2="946.5" y2="265.818" gradientUnits="userSpaceOnUse">
<stop stop-color="#F7DD43"/>
<stop offset="1" stop-color="#F7DD43" stop-opacity="0"/>
</linearGradient>
<linearGradient id="paint59_linear_175_1885" x1="946.5" y1="-33" x2="946.5" y2="265.818" gradientUnits="userSpaceOnUse">
<stop stop-color="#F7DD43"/>
<stop offset="1" stop-color="#F7DD43" stop-opacity="0"/>
</linearGradient>
<linearGradient id="paint60_linear_175_1885" x1="946.5" y1="-33" x2="946.5" y2="265.818" gradientUnits="userSpaceOnUse">
<stop stop-color="#F7DD43"/>
<stop offset="1" stop-color="#F7DD43" stop-opacity="0"/>
</linearGradient>
<linearGradient id="paint61_linear_175_1885" x1="946.5" y1="-33" x2="946.5" y2="265.818" gradientUnits="userSpaceOnUse">
<stop stop-color="#F7DD43"/>
<stop offset="1" stop-color="#F7DD43" stop-opacity="0"/>
</linearGradient>
<linearGradient id="paint62_linear_175_1885" x1="946.5" y1="-33" x2="946.5" y2="265.818" gradientUnits="userSpaceOnUse">
<stop stop-color="#F7DD43"/>
<stop offset="1" stop-color="#F7DD43" stop-opacity="0"/>
</linearGradient>
<linearGradient id="paint63_linear_175_1885" x1="946.5" y1="-33" x2="946.5" y2="265.818" gradientUnits="userSpaceOnUse">
<stop stop-color="#F7DD43"/>
<stop offset="1" stop-color="#F7DD43" stop-opacity="0"/>
</linearGradient>
<linearGradient id="paint64_linear_175_1885" x1="946.5" y1="-33" x2="946.5" y2="265.818" gradientUnits="userSpaceOnUse">
<stop stop-color="#F7DD43"/>
<stop offset="1" stop-color="#F7DD43" stop-opacity="0"/>
</linearGradient>
<linearGradient id="paint65_linear_175_1885" x1="946.5" y1="-33" x2="946.5" y2="265.818" gradientUnits="userSpaceOnUse">
<stop stop-color="#F7DD43"/>
<stop offset="1" stop-color="#F7DD43" stop-opacity="0"/>
</linearGradient>
<linearGradient id="paint66_linear_175_1885" x1="946.5" y1="-33" x2="946.5" y2="265.818" gradientUnits="userSpaceOnUse">
<stop stop-color="#F7DD43"/>
<stop offset="1" stop-color="#F7DD43" stop-opacity="0"/>
</linearGradient>
<linearGradient id="paint67_linear_175_1885" x1="946.5" y1="-33" x2="946.5" y2="265.818" gradientUnits="userSpaceOnUse">
<stop stop-color="#F7DD43"/>
<stop offset="1" stop-color="#F7DD43" stop-opacity="0"/>
</linearGradient>
<linearGradient id="paint68_linear_175_1885" x1="946.5" y1="-33" x2="946.5" y2="265.818" gradientUnits="userSpaceOnUse">
<stop stop-color="#F7DD43"/>
<stop offset="1" stop-color="#F7DD43" stop-opacity="0"/>
</linearGradient>
<linearGradient id="paint69_linear_175_1885" x1="946.5" y1="-33" x2="946.5" y2="265.818" gradientUnits="userSpaceOnUse">
<stop stop-color="#F7DD43"/>
<stop offset="1" stop-color="#F7DD43" stop-opacity="0"/>
</linearGradient>
<linearGradient id="paint70_linear_175_1885" x1="946.5" y1="-33" x2="946.5" y2="265.818" gradientUnits="userSpaceOnUse">
<stop stop-color="#F7DD43"/>
<stop offset="1" stop-color="#F7DD43" stop-opacity="0"/>
</linearGradient>
<linearGradient id="paint71_linear_175_1885" x1="946.5" y1="-33" x2="946.5" y2="265.818" gradientUnits="userSpaceOnUse">
<stop stop-color="#F7DD43"/>
<stop offset="1" stop-color="#F7DD43" stop-opacity="0"/>
</linearGradient>
<linearGradient id="paint72_linear_175_1885" x1="946.5" y1="-33" x2="946.5" y2="265.818" gradientUnits="userSpaceOnUse">
<stop stop-color="#F7DD43"/>
<stop offset="1" stop-color="#F7DD43" stop-opacity="0"/>
</linearGradient>
<linearGradient id="paint73_linear_175_1885" x1="946.5" y1="-33" x2="946.5" y2="265.818" gradientUnits="userSpaceOnUse">
<stop stop-color="#F7DD43"/>
<stop offset="1" stop-color="#F7DD43" stop-opacity="0"/>
</linearGradient>
<linearGradient id="paint74_linear_175_1885" x1="946.5" y1="-33" x2="946.5" y2="265.818" gradientUnits="userSpaceOnUse">
<stop stop-color="#F7DD43"/>
<stop offset="1" stop-color="#F7DD43" stop-opacity="0"/>
</linearGradient>
<linearGradient id="paint75_linear_175_1885" x1="946.5" y1="-33" x2="946.5" y2="265.818" gradientUnits="userSpaceOnUse">
<stop stop-color="#F7DD43"/>
<stop offset="1" stop-color="#F7DD43" stop-opacity="0"/>
</linearGradient>
<linearGradient id="paint76_linear_175_1885" x1="946.5" y1="-33" x2="946.5" y2="265.818" gradientUnits="userSpaceOnUse">
<stop stop-color="#F7DD43"/>
<stop offset="1" stop-color="#F7DD43" stop-opacity="0"/>
</linearGradient>
<linearGradient id="paint77_linear_175_1885" x1="946.5" y1="-33" x2="946.5" y2="265.818" gradientUnits="userSpaceOnUse">
<stop stop-color="#F7DD43"/>
<stop offset="1" stop-color="#F7DD43" stop-opacity="0"/>
</linearGradient>
<linearGradient id="paint78_linear_175_1885" x1="946.5" y1="-33" x2="946.5" y2="265.818" gradientUnits="userSpaceOnUse">
<stop stop-color="#F7DD43"/>
<stop offset="1" stop-color="#F7DD43" stop-opacity="0"/>
</linearGradient>
<linearGradient id="paint79_linear_175_1885" x1="946.5" y1="-33" x2="946.5" y2="265.818" gradientUnits="userSpaceOnUse">
<stop stop-color="#F7DD43"/>
<stop offset="1" stop-color="#F7DD43" stop-opacity="0"/>
</linearGradient>
<linearGradient id="paint80_linear_175_1885" x1="946.5" y1="-33" x2="946.5" y2="265.818" gradientUnits="userSpaceOnUse">
<stop stop-color="#F7DD43"/>
<stop offset="1" stop-color="#F7DD43" stop-opacity="0"/>
</linearGradient>
<linearGradient id="paint81_linear_175_1885" x1="946.5" y1="-33" x2="946.5" y2="265.818" gradientUnits="userSpaceOnUse">
<stop stop-color="#F7DD43"/>
<stop offset="1" stop-color="#F7DD43" stop-opacity="0"/>
</linearGradient>
<linearGradient id="paint82_linear_175_1885" x1="946.5" y1="-33" x2="946.5" y2="265.818" gradientUnits="userSpaceOnUse">
<stop stop-color="#F7DD43"/>
<stop offset="1" stop-color="#F7DD43" stop-opacity="0"/>
</linearGradient>
<linearGradient id="paint83_linear_175_1885" x1="946.5" y1="-33" x2="946.5" y2="265.818" gradientUnits="userSpaceOnUse">
<stop stop-color="#F7DD43"/>
<stop offset="1" stop-color="#F7DD43" stop-opacity="0"/>
</linearGradient>
<linearGradient id="paint84_linear_175_1885" x1="946.5" y1="-33" x2="946.5" y2="265.818" gradientUnits="userSpaceOnUse">
<stop stop-color="#F7DD43"/>
<stop offset="1" stop-color="#F7DD43" stop-opacity="0"/>
</linearGradient>
<linearGradient id="paint85_linear_175_1885" x1="946.5" y1="-33" x2="946.5" y2="265.818" gradientUnits="userSpaceOnUse">
<stop stop-color="#F7DD43"/>
<stop offset="1" stop-color="#F7DD43" stop-opacity="0"/>
</linearGradient>
<linearGradient id="paint86_linear_175_1885" x1="946.5" y1="-33" x2="946.5" y2="265.818" gradientUnits="userSpaceOnUse">
<stop stop-color="#F7DD43"/>
<stop offset="1" stop-color="#F7DD43" stop-opacity="0"/>
</linearGradient>
<linearGradient id="paint87_linear_175_1885" x1="946.5" y1="-33" x2="946.5" y2="265.818" gradientUnits="userSpaceOnUse">
<stop stop-color="#F7DD43"/>
<stop offset="1" stop-color="#F7DD43" stop-opacity="0"/>
</linearGradient>
<linearGradient id="paint88_linear_175_1885" x1="946.5" y1="-33" x2="946.5" y2="265.818" gradientUnits="userSpaceOnUse">
<stop stop-color="#F7DD43"/>
<stop offset="1" stop-color="#F7DD43" stop-opacity="0"/>
</linearGradient>
<linearGradient id="paint89_linear_175_1885" x1="946.5" y1="-33" x2="946.5" y2="265.818" gradientUnits="userSpaceOnUse">
<stop stop-color="#F7DD43"/>
<stop offset="1" stop-color="#F7DD43" stop-opacity="0"/>
</linearGradient>
<linearGradient id="paint90_linear_175_1885" x1="946.5" y1="-33" x2="946.5" y2="265.818" gradientUnits="userSpaceOnUse">
<stop stop-color="#F7DD43"/>
<stop offset="1" stop-color="#F7DD43" stop-opacity="0"/>
</linearGradient>
<linearGradient id="paint91_linear_175_1885" x1="946.5" y1="-33" x2="946.5" y2="265.818" gradientUnits="userSpaceOnUse">
<stop stop-color="#F7DD43"/>
<stop offset="1" stop-color="#F7DD43" stop-opacity="0"/>
</linearGradient>
<linearGradient id="paint92_linear_175_1885" x1="946.5" y1="-33" x2="946.5" y2="265.818" gradientUnits="userSpaceOnUse">
<stop stop-color="#F7DD43"/>
<stop offset="1" stop-color="#F7DD43" stop-opacity="0"/>
</linearGradient>
<linearGradient id="paint93_linear_175_1885" x1="946.5" y1="-33" x2="946.5" y2="265.818" gradientUnits="userSpaceOnUse">
<stop stop-color="#F7DD43"/>
<stop offset="1" stop-color="#F7DD43" stop-opacity="0"/>
</linearGradient>
</defs>
</svg>
